# xmcd
#
# Track frame offsets:
#	183
#	12900
#	23253
#	32435
#	44730
#	54958
#	66588
#	78540
#	94163
#	105635
#	119595
#	133920
#	144723
#	152220
#	165140
#	175515
#	185253
#	197533
#	213110
#	219845
#	227140
#	234805
#	246965
#	258088
#	270203
#	284435
#	298803
#	307678
#
# Disc length: 4249 seconds
# Revision: 0
# Processed by: cddbd v1.5.2PL0 Copyright (c) Steve Scherf et al.
# Submitted via: dBpowerAMP V12.0
#
DISCID=7710971c
DTITLE=The Fireside Singers - 150 All Time Sing Along Favorites Disk 2
DYEAR=1900
DGENRE=Sing A Long
TTITLE0=Tumbling Tumble Weeds
TTITLE1=Whoopie Ti Yi Yo Git Along Little Dogies
TTITLE2=Oh Susannia
TTITLE3=San Antonio Rose
TTITLE4=Blue Tail Fly
TTITLE5=Home On The Range
TTITLE6=Buttons and Bows
TTITLE7=Cool Water
TTITLE8=Don't Fence Me In
TTITLE9=The Cattle Call
TTITLE10=Red River Valley
TTITLE11=Give Me That Old Time Religion
TTITLE12=Do Lord Remember Me and This Train
TTITLE13=Kum Bah Yah
TTITLE14=Michael Row The Boar Ashore
TTITLE15=Ev'ry Time I Feel The Spirit
TTITLE16=Deep River
TTITLE17=Oh Mary Don't You Weep and Swing Low Sweet Chariot
TTITLE18=Lonesome Valley
TTITLE19=This Little Light Of Mine and Amen
TTITLE20=Take Me Out To The Ballgame
TTITLE21=For Me and My Gal
TTITLE22=School Days and The Sidewalks Of New York East Side West Side
TTITLE23=Deep In The Heart Of Texas
TTITLE24=Silver Threads Among The Gold
TTITLE25=Daisy Bell A Bicycle Built For Two
TTITLE26=The Darktown Strutters Ball
TTITLE27=So Long It's Been Good To Know Yuh
EXTD=
EXTT0=
EXTT1=
EXTT2=
EXTT3=
EXTT4=
EXTT5=
EXTT6=
EXTT7=
EXTT8=
EXTT9=
EXTT10=
EXTT11=
EXTT12=
EXTT13=
EXTT14=
EXTT15=
EXTT16=
EXTT17=
EXTT18=
EXTT19=
EXTT20=
EXTT21=
EXTT22=
EXTT23=
EXTT24=
EXTT25=
EXTT26=
EXTT27=
PLAYORDER=
